<svg xmlns="http://www.w3.org/2000/svg" width="48" height="48" viewBox="0 0 48 48">
  <g id="Page-1" transform="translate(-0.018 0.001)">
    <g id="_020---Pallette" data-name="020---Pallette" transform="translate(0.018 -0.001)">
      <path id="Shape" d="M4.574,14.105A21.661,21.661,0,0,0,4.7,40.843a21.424,21.424,0,0,0,15.722,8.123Q21.013,49,21.6,49a21.509,21.509,0,0,0,17.581-9.05l.675,6.737a2.569,2.569,0,0,0,5.112,0l2.137-21.36a7.189,7.189,0,0,0-.148-2.333L45.377,16.13a5.707,5.707,0,0,0,2.641-4.822A9.567,9.567,0,0,0,46.96,7.262a6.154,6.154,0,0,1-.739-4.172,1.749,1.749,0,0,0-.747-1.85,1.5,1.5,0,0,0-1.753.09c-4.649,3.581-6.907,6.845-6.907,9.978a5.709,5.709,0,0,0,2.641,4.822l-.816,3.541a5.523,5.523,0,0,0-5.15,1.515l-3.953,3.952a4,4,0,0,1-5.663-5.66l3.962-3.953a5.547,5.547,0,0,0,1.349-5.719,5.627,5.627,0,0,0-4.594-3.8,21.5,21.5,0,0,0-20.017,8.1ZM44.65,2.633a.207.207,0,0,1,.006.122,7.643,7.643,0,0,0,.838,5.154,8.04,8.04,0,0,1,.923,3.4,4.113,4.113,0,0,1-.185,1.164,4.85,4.85,0,0,1-.872-.142,5.087,5.087,0,0,1-2.82-1.983c-.166-.24-.312-.5-.46-.755a6.811,6.811,0,0,0-1.2-1.659,3.83,3.83,0,0,0-.951-.64A22.969,22.969,0,0,1,44.65,2.633Zm-6.235,8.675A5.974,5.974,0,0,1,39.1,8.675a2.248,2.248,0,0,1,.691.427,5.529,5.529,0,0,1,.906,1.289c.168.292.338.584.529.864a6.717,6.717,0,0,0,3.72,2.625c.16.042.32.066.48.1A3.94,3.94,0,0,1,42.417,15.4a4.052,4.052,0,0,1-4-4.091Zm4,5.691a5.491,5.491,0,0,0,1.472-.206l1.512,6.56a.116.116,0,0,0,.006.046H43.217a.8.8,0,1,0,0,1.6h2.3c0,.056,0,.112,0,.168l-2.143,21.36a.968.968,0,0,1-1.927,0l-2.137-21.36a1.68,1.68,0,0,1,0-.168h.7a.8.8,0,1,0,0-1.6h-.591a.1.1,0,0,1,.007-.046l1.512-6.56A5.491,5.491,0,0,0,42.417,17ZM27.663,10.315a3.905,3.905,0,0,1-.96,4.08l-3.964,3.954a5.6,5.6,0,1,0,7.925,7.92l3.953-3.952a3.949,3.949,0,0,1,3.659-1.086l-.407,1.76a7.2,7.2,0,0,0-.148,2.334L38.929,37.4A20,20,0,1,1,24.369,7.592a3.986,3.986,0,0,1,3.294,2.723Z" transform="translate(-0.018 -0.999)" fill="#002d4f"/>
      <path id="Shape-2" data-name="Shape" d="M19.99,11.823a.8.8,0,1,0,.476,1.527,16.75,16.75,0,0,1,7.339-.592.8.8,0,1,0,.221-1.585,18.306,18.306,0,0,0-8.036.65Z" transform="translate(-3.892 -2.998)" fill="#002d4f"/>
      <path id="Shape-3" data-name="Shape" d="M17.4,24.835a4.4,4.4,0,0,0,3.112-7.51.8.8,0,0,0-1.134,1.134,2.8,2.8,0,0,1,0,3.96,2.87,2.87,0,0,1-3.961,0,2.8,2.8,0,0,1,0-3.96.8.8,0,0,0-1.132-1.131A4.4,4.4,0,0,0,17.4,24.835Z" transform="translate(-2.612 -4.217)" fill="#002d4f"/>
      <path id="Shape-4" data-name="Shape" d="M14.51,32.232a.8.8,0,1,0-1.132,1.131,2.8,2.8,0,0,1,0,3.96,2.87,2.87,0,0,1-3.961,0,2.8,2.8,0,0,1,0-3.96.8.8,0,1,0-1.132-1.131,4.4,4.4,0,1,0,6.224,0Z" transform="translate(-1.412 -7.197)" fill="#002d4f"/>
      <path id="Shape-5" data-name="Shape" d="M35.4,47.066a4.4,4.4,0,0,0,3.112-7.511.8.8,0,0,0-1.132,1.131,2.8,2.8,0,0,1,0,3.96,2.87,2.87,0,0,1-3.961,0,2.8,2.8,0,0,1,0-3.96.8.8,0,0,0-1.132-1.131A4.4,4.4,0,0,0,35.4,47.066Z" transform="translate(-6.207 -8.666)" fill="#002d4f"/>
      <path id="Shape-6" data-name="Shape" d="M23.379,44.552a.8.8,0,0,0,0,1.131,2.8,2.8,0,0,1,0,3.96,2.87,2.87,0,0,1-3.961,0,2.8,2.8,0,0,1,0-3.96.8.8,0,0,0-1.132-1.131,4.4,4.4,0,1,0,6.224,0,.8.8,0,0,0-1.132,0Z" transform="translate(-3.41 -9.663)" fill="#002d4f"/>
    </g>
  </g>
</svg>
